<?xml version="1.0" encoding="UTF-8" standalone="no" ?>
<!DOCTYPE svg PUBLIC "-//W3C//DTD SVG 1.1//EN" "http://www.w3.org/Graphics/SVG/1.1/DTD/svg11.dtd">
<svg xmlns="http://www.w3.org/2000/svg" xmlns:xlink="http://www.w3.org/1999/xlink" version="1.1" width="600" height="299" viewBox="0 0 600 299" xml:space="preserve">
<desc>Created with Fabric.js 3.6.6</desc>
<defs>
</defs>
<g transform="matrix(1 0 0 1 356.5 201.26)" style=""  >
		<text xml:space="preserve" font-family="'Open Sans', sans-serif" font-size="18" font-style="normal" font-weight="normal" style="stroke: none; stroke-width: 1; stroke-dasharray: none; stroke-linecap: butt; stroke-dashoffset: 0; stroke-linejoin: miter; stroke-miterlimit: 4; fill: rgb(0,0,0); fill-rule: nonzero; opacity: 1; white-space: pre;" ><tspan x="-40" y="-17.94" >Your text</tspan><tspan x="-40" y="5.65" >goes</tspan><tspan x="-40" y="29.25" >here...</tspan></text>
</g>
<g transform="matrix(1 0 0 1 300 149)"  >
<path style="stroke: none; stroke-width: 1; stroke-dasharray: none; stroke-linecap: butt; stroke-dashoffset: 0; stroke-linejoin: miter; stroke-miterlimit: 10; fill: rgb(84,166,33); fill-rule: nonzero; opacity: 1;"  transform=" translate(-300, -150)" d="M 0 300 v -300 h 600 v 300 z" stroke-linecap="round" />
</g>
<g transform="matrix(1 0 0 1 300.69 149.57)"  >
<path style="stroke: rgb(85,179,27); stroke-width: 5; stroke-dasharray: none; stroke-linecap: butt; stroke-dashoffset: 0; stroke-linejoin: miter; stroke-miterlimit: 10; fill: none; fill-rule: nonzero; opacity: 1;"  transform=" translate(-300.69, -150.57)" d="M 0.00003 29.30001 c 5.54 -17.05 8.25 -23.01 24.35 -29.3 c 21.4 -8.36 25.32 0 50.65 0 c 37.5 0 37.5 0 75 0 c 37.5 0 37.5 0 75 0 c 37.5 0 37.5 0 75 0 c 34.42 0 46.62 -13.9 68.85 0 c 15.27 9.54 -27.66285 60.13798 4.4 71.38 c 52.80489 18.51469 18.66 -58.6 34.71 -68.63 c 21.45 -13.41 9.9 -2.75 42.04 -2.75 c 37.5 0 37.5 0 75 0 c 33.09 0 34.87 -4.04 66.18 0 c 6.19 0.8 8.08 3.42 8.82 9.68 c 3.67 31.24 0 32.66 0 65.32 c 0 32.66 3.35 33.87 0 65.32 c -0.65 6.05 -11.73598 13.06287 -14 19.68 c -2.26402 6.61713 -11.09 11.2 -8.13 45 c 1.04 11.85 18.83 24.58 22.13 36.3 c 7.26 25.78 16.46 45.81 0 58.7 c -21.04 16.46 -37.5 0 -75 0 c -26.86 0 -41.08 15.61 -53.72 0 c -17.72 -21.89 1.48 -39.98 -6.99 -75 c -2.17 -9 -5.16 -11.12 -14.29 -13.04 c -35.51 -7.46 -41.71092 -13.57347 -73.75 -8.46 c -12.03 1.92 -12.20084 14.72159 -7.02 21 c 6.75 8.18 22.72424 6.43669 25.77 7.38 c 28.93 8.96 20.76 43.95 20.76 68.12 c 0 11.89 -20.38 0 -40.76 0 c -37.5 0 -37.5 0 -75 0 c -37.5 0 -37.5 0 -75 0 c -37.5 0 -37.5 0 -75 0 c -35.87 0 -40.37 5.7 -71.74 0 c -6.13 -1.12 2.89 -12.99 -3.26 -13.64 c -32.98 -3.51 -55.12 21.57 -75 5.31 c -17.62 -14.42 0 -33.33 0 -66.67 c 0 -37.5 0 -37.5 0 -75 c 0 -37.5 0 -37.5 0 -75 c 0 -22.85 -6.64 -25.25 0 -45.7" stroke-linecap="round" />
</g>
<g transform="matrix(1 0 0 1 191.22 116.66)"  >
<path style="stroke: rgb(85,179,27); stroke-width: 5; stroke-dasharray: none; stroke-linecap: butt; stroke-dashoffset: 0; stroke-linejoin: miter; stroke-miterlimit: 10; fill: none; fill-rule: nonzero; opacity: 1;"  transform=" translate(-191.22, -117.67)" d="M 150.00001 72.95001 c 37.45 -1.16 33.67 -2.49 70.75 -1.53 c 32.66884 0.80333 27.36608 45.93509 25.88 78.58 c -0.51 11.23 -10.07 14.24 -21.63 14.24 c -17.4 0 -23.7 -0.65 -36.29 -14.24 c -24.91 -26.87 -24.91 -16.22 -47.21 -46.42 c -5.39 -7.3 -6.92 -19.6 -6.92 -22.33 c 0 -2.46 7.03 -8.04 15.42 -8.3" stroke-linecap="round" />
</g>
<g transform="matrix(1 0 0 1 186.38 180.82)"  >
<path style="stroke: rgb(85,179,27); stroke-width: 5; stroke-dasharray: none; stroke-linecap: butt; stroke-dashoffset: 0; stroke-linejoin: miter; stroke-miterlimit: 10; fill: none; fill-rule: nonzero; opacity: 1;"  transform=" translate(-186.37, -181.82)" d="M 0.00003 58.59001 c 11.33 0 17.93 5.92 32.81 16.41 c 22.62 15.96 20.48 19 42.19 36.49 c 24.83 20.01 29.19 15.88 50.89 38.51 c 15.8 16.48 5.16 32.45 24.11 39.71 c 30.6 11.72 40.42 -11.04 75 -1.74 c 31.04 8.35 30.64 15.85 56.25 37.03 c 11.89 9.83 6.68 15.35 18.75 25 c 34.81 27.85 75 36.35 75 50 c 0 11.35 -37.5 0 -75 0 c -22.16 0 -24.31 6.32 -44.32 0 c -17.49 -5.52 -14.86 -23.68 -30.68 -23.68 c -17.76 0 -16.6 17.4 -36.49 23.68 c -17.61 5.56 -19.26 0 -38.51 0 c -15.49 0 -27.33 10.94 -30.98 0 c -8.85 -26.56 18.17 -44.74 5.98 -75 c -9.82 -24.38 -24.83 -34.29 -50 -34.29 c -25.92 0 -26.02 17.25 -52.17 34.29 c -11.35 7.39 -15.41 14.58 -22.83 14.58 c -3.99 0 0 -7.29 0 -14.58 c 0 -37.5 0 -37.5 0 -75 c 0 -37.5 0 -37.5 0 -75 c 0 -8.2 -5.07 -16.41 0 -16.41" stroke-linecap="round" />
</g>
<g transform="matrix(1 0 0 1 194.32 89.22)"  >
<path style="stroke: rgb(85,179,27); stroke-width: 5; stroke-dasharray: none; stroke-linecap: butt; stroke-dashoffset: 0; stroke-linejoin: miter; stroke-miterlimit: 10; fill: none; fill-rule: nonzero; opacity: 1;"  transform=" translate(-194.32, -90.23)" d="M 75.00002 45.00001 c -20.76 -9.69 -26.3 -30.05 -26.3 -45 c 0 -7.55 13.15 0 26.3 0 c 37.5 0 37.5 0 75 0 c 37.5 0 37.5 0 75 0 c 37.5 0 37.5 0 75 0 c 19.06 0 34.21 -12.48 38.11 0 c 7.82 25.02 -11.73 37.16 -14.67 75 c -2.88 37.16 10.38 40.21 3.03 75 c -4.37 20.71 -14.91 36 -26.47 36 c -10.33 0 -13.79 -16.72 -17.31 -36 c -6.61 -36.22 12.31 -45.04 -2.96 -75 c -13.58 -26.64 -24.34 -31.71 -54.73 -38.21 c -34.48 -7.37 -37.33 8.41 -75 10.47 c -37.33 2.04 -45.11 11.68 -75 -2.26" stroke-linecap="round" />
</g>
<g transform="matrix(1 0 0 1 506.77 149.97)"  >
<path style="stroke: rgb(85,179,27); stroke-width: 5; stroke-dasharray: none; stroke-linecap: butt; stroke-dashoffset: 0; stroke-linejoin: miter; stroke-miterlimit: 10; fill: none; fill-rule: nonzero; opacity: 1;"  transform=" translate(-506.77, -150.97)" d="M 438.46005 75.00001 c 8.06 -35.85 -4.22 -42.19 0.83 -75 c 0.72 -4.69 5.35 0 10.71 0 c 37.5 0 37.5 0 75 0 c 19.3 0 22.97 -8.32 38.6 0 c 21.87 11.64 25.37 17.18 36.4 39.92 c 7.17 14.76 0 17.54 0 35.08 c 0 17.54 6.66 19.94 0 35.08 c -9.84 22.36 -23.4 16.7 -33 39.92 c -14.17 34.24 -16.78 40.73 -7.54 72 c 7.26 24.57 26.03 16.79 40.54 39.68 c 9.26 14.61 12.68 31.84 0 38.32 c -24.82 12.68 -37.5 0 -75 0 c -14.19 0 -24.13 10.29 -28.38 0 c -11.23 -27.21 10.42 -42.9 -2.57 -75 c -10.32 -25.51 -21.31 -20.95 -44.05 -40.22 c -21.51 -18.23 -42.09 -12.39 -44.44 -34.78 c -3.42 -32.5 24.1 -35.85 32.9 -75" stroke-linecap="round" />
</g>
<g transform="matrix(1 0 0 1 506.78 72.11)"  >
<path style="stroke: rgb(85,179,27); stroke-width: 5; stroke-dasharray: none; stroke-linecap: butt; stroke-dashoffset: 0; stroke-linejoin: miter; stroke-miterlimit: 10; fill: none; fill-rule: nonzero; opacity: 1;"  transform=" translate(-506.77, -73.11)" d="M 520.27728 58.81001 c 5.53 0 9.09 4.03 9.09 7.69 c 0 3.44 -11.55 26.27 -30.09 19.77 c -16.98631 -5.95529 -17.91161 -15.67447 -11.25 -23.52 c 3.81647 -4.49474 14.48 -3.94 32.25 -3.94" stroke-linecap="round" />
</g>
<g transform="matrix(1 0 0 1 190.3 9.21)"  >
<path style="stroke: rgb(85,179,27); stroke-width: 5; stroke-dasharray: none; stroke-linecap: butt; stroke-dashoffset: 0; stroke-linejoin: miter; stroke-miterlimit: 10; fill: none; fill-rule: nonzero; opacity: 1;"  transform=" translate(-190.3, -10.22)" d="M 75.00002 3.33001 c -1.83 -0.51 -1.95 -2.22 -1.95 -3.33 c 0 -0.56 0.98 0 1.95 0 c 37.5 0 37.5 0 75 0 c 37.5 0 37.5 0 75 0 c 37.5 0 37.5 0 75 0 c 3.69 0 7.38 -2.63 7.38 0 c 0 8.08 1.93 21.27 -7.38 21.43 c -31.88 0.55 -37.51 -20.05 -75 -20.01 c -37.51 0.04 -37.39 19.68 -75 20.16 c -37.39 0.48 -38.36 -7.97 -75 -18.25" stroke-linecap="round" />
</g>
<g transform="matrix(1 0 0 1 518.01 7.67)"  >
<path style="stroke: rgb(85,179,27); stroke-width: 5; stroke-dasharray: none; stroke-linecap: butt; stroke-dashoffset: 0; stroke-linejoin: miter; stroke-miterlimit: 10; fill: none; fill-rule: nonzero; opacity: 1;"  transform=" translate(-518.02, -8.67)" d="M 525.00001 19.23 c -10.58 0 -25 -13.87 -25 -19.23 c 0 -4.25 12.5 0 25 0 c 5.51 0 11.03 -3.19 11.03 0 c 0 6.42 -3.59 19.23 -11.03 19.23" stroke-linecap="round" />
</g>
<g transform="matrix(1 0 0 1 595.32 73.63)"  >
<path style="stroke: rgb(85,179,27); stroke-width: 5; stroke-dasharray: none; stroke-linecap: butt; stroke-dashoffset: 0; stroke-linejoin: miter; stroke-miterlimit: 10; fill: none; fill-rule: nonzero; opacity: 1;"  transform=" translate(-595.32, -74.63)" d="M 601.59535 95.90415 c -7.18212 -3.31394 -14.32782 -10.45956 -14.09535 -24.56414 c 0.10059 -6.10329 8.26319 -15.15484 15.65382 -17.97992" stroke-linecap="round" />
</g>
<g transform="matrix(1 0 0 1 21.47 144.54)"  >
<path style="stroke: rgb(85,179,27); stroke-width: 5; stroke-dasharray: none; stroke-linecap: butt; stroke-dashoffset: 0; stroke-linejoin: miter; stroke-miterlimit: 10; fill: none; fill-rule: nonzero; opacity: 1;"  transform=" translate(-21.48, -145.54)" d="M 0.00003 114.29001 c 14.6 0 46.88 19.4 46.88 35.71 c 0 14.94 -31.21 26.79 -46.88 26.79 c -7.77 0 0 -13.4 0 -26.79 c 0 -17.86 -8.84 -35.71 0 -35.71" stroke-linecap="round" />
</g>
<g transform="matrix(1 0 0 1 522.62 210.25)"  >
<path style="stroke: rgb(85,179,27); stroke-width: 5; stroke-dasharray: none; stroke-linecap: butt; stroke-dashoffset: 0; stroke-linejoin: miter; stroke-miterlimit: 10; fill: none; fill-rule: nonzero; opacity: 1;"  transform=" translate(-522.62, -211.25)" d="M 440.28005 150 c 0 -8.32 0.46 -15.72 9.72 -18.75 c 33.1 -10.83 42.84 -15.52 75 -8.97 c 13.84 2.82 16.84 12.42 17 27.72 c 0.37 36.06 -18.01 44.23 -4.94 74 c 15.93 36.26 31.92 26.61 62.94 58.07 c 5.95 6.04 7.24 16.2 0 17.93 c -30.26 7.24 -37.5 0 -75 0 c -1.52 0 -3.02 1.46 -3.04 0 c -0.57 -36.04 17.28 -44.47 1.85 -75 c -20.55 -40.67 -36.64 -34.01 -73.81 -67.39 c -4.59 -4.12 -9.72 -2.75 -9.72 -7.61" stroke-linecap="round" />
</g>
<g transform="matrix(1 0 0 1 218.16 226.55)"  >
<path style="stroke: rgb(85,179,27); stroke-width: 5; stroke-dasharray: none; stroke-linecap: butt; stroke-dashoffset: 0; stroke-linejoin: miter; stroke-miterlimit: 10; fill: none; fill-rule: nonzero; opacity: 1;"  transform=" translate(-218.16, -227.57)" d="M 191.13005 225.00001 c 0 -7.7 17.63 -13.29 33.87 -13.29 c 10.79 0 20.19 5.85 20.19 13.29 c 0 8.41 -8.98 18.42 -20.19 18.42 c -15.82 0 -33.87 -10.26 -33.87 -18.42" stroke-linecap="round" />
</g>
<g transform="matrix(1 0 0 1 408.57 66.97)"  >
<path style="stroke: rgb(0,0,0); stroke-opacity: 0.15; stroke-width: 10; stroke-dasharray: none; stroke-linecap: butt; stroke-dashoffset: 0; stroke-linejoin: miter; stroke-miterlimit: 10; fill: none; fill-rule: nonzero; opacity: 1;"  transform=" translate(-408.57, -67.96)" d="M 432.74236 55.87813 v 36.2581 c 0 3.32367 -2.71934 6.043 -6.043 6.043 h -36.28832 c -3.32367 0 -6.01279 -2.71933 -6.01279 -6.043 l 0.03022 -48.34413 c 0 -3.32366 2.68913 -6.04301 6.01279 -6.04301 h 24.17208 z" stroke-linecap="round" />
</g>
<g transform="matrix(1 0 0 1 408.57 66.97)"  >
<path style="stroke: none; stroke-width: 1; stroke-dasharray: none; stroke-linecap: butt; stroke-dashoffset: 0; stroke-linejoin: miter; stroke-miterlimit: 10; fill: rgb(255,255,255); fill-rule: nonzero; opacity: 1;"  transform=" translate(-408.57, -67.96)" d="M 432.74236 55.87813 v 36.2581 c 0 3.32367 -2.71934 6.043 -6.043 6.043 h -36.28832 c -3.32367 0 -6.01279 -2.71933 -6.01279 -6.043 l 0.03022 -48.34413 c 0 -3.32366 2.68913 -6.04301 6.01279 -6.04301 h 24.17208 z" stroke-linecap="round" />
</g>
<g transform="matrix(1 0 0 1 408.57 78.59)"  >
<path style="stroke: none; stroke-width: 0.5; stroke-dasharray: none; stroke-linecap: butt; stroke-dashoffset: 0; stroke-linejoin: miter; stroke-miterlimit: 10; fill: rgb(59,117,23); fill-rule: nonzero; opacity: 1;"  transform=" translate(-408.57, -79.59)" d="M 405.56054 91.63068 v -24.07799 h 6.01949 v 24.07799 z" stroke-linecap="round" />
</g>
<g transform="matrix(1 0 0 1 408.57 66.61)"  >
<path style="stroke: none; stroke-width: 0.5; stroke-dasharray: none; stroke-linecap: butt; stroke-dashoffset: 0; stroke-linejoin: miter; stroke-miterlimit: 10; fill: rgb(59,117,23); fill-rule: nonzero; opacity: 1;"  transform=" translate(-408.57, -67.61)" d="M 420.60929 70.62171 h -24.078 v -6.01948 h 24.078 z" stroke-linecap="round" />
</g>
<g transform="matrix(1 0 0 1 419.9 49.59)"  >
<path style="stroke: none; stroke-width: 0.5; stroke-dasharray: none; stroke-linecap: butt; stroke-dashoffset: 0; stroke-linejoin: miter; stroke-miterlimit: 10; fill: rgb(84,166,33); fill-rule: nonzero; opacity: 1;"  transform=" translate(-419.9, -50.59)" d="M 411.57471 58.91677 v -16.6525 l 16.65248 16.65248 z" stroke-linecap="round" />
</g>
<g transform="matrix(1 0 0 1 408.43 145.67)"  >
<path style="stroke: rgb(0,0,0); stroke-opacity: 0.15; stroke-width: 10; stroke-dasharray: none; stroke-linecap: butt; stroke-dashoffset: 0; stroke-linejoin: miter; stroke-miterlimit: 10; fill: none; fill-rule: nonzero; opacity: 1;"  transform=" translate(-408.43, -146.66)" d="M 432.60581 134.57692 v 36.25809 c 0 3.32366 -2.71936 6.04302 -6.04302 6.04302 h -36.2883 c -3.32367 0 -6.0128 -2.71936 -6.0128 -6.04302 l 0.03021 -48.34413 c 0 -3.32366 2.68914 -6.04301 6.01281 -6.04301 h 24.17208 z" stroke-linecap="round" />
</g>
<g transform="matrix(1 0 0 1 408.43 145.67)"  >
<path style="stroke: none; stroke-width: 1; stroke-dasharray: none; stroke-linecap: butt; stroke-dashoffset: 0; stroke-linejoin: miter; stroke-miterlimit: 10; fill: rgb(255,255,255); fill-rule: nonzero; opacity: 1;"  transform=" translate(-408.43, -146.66)" d="M 432.60581 134.57692 v 36.25809 c 0 3.32366 -2.71936 6.04302 -6.04302 6.04302 h -36.2883 c -3.32367 0 -6.0128 -2.71936 -6.0128 -6.04302 l 0.03021 -48.34413 c 0 -3.32366 2.68914 -6.04301 6.01281 -6.04301 h 24.17208 z" stroke-linecap="round" />
</g>
<g transform="matrix(1 0 0 1 408.41 155.7)"  >
<path style="stroke: rgb(59,117,23); stroke-width: 1; stroke-dasharray: none; stroke-linecap: butt; stroke-dashoffset: 0; stroke-linejoin: miter; stroke-miterlimit: 10; fill: rgb(59,117,23); fill-rule: nonzero; opacity: 1;"  transform=" translate(-408.41, -156.7)" d="M 420.82995 170.10973 c -0.25448 0 -0.50895 -0.09724 -0.70347 -0.29094 l -24.83285 -24.83367 c -0.38821 -0.3882 -0.38821 -1.01873 0 -1.40694 c 0.38821 -0.3882 1.01872 -0.3882 1.40693 0 l 24.83285 24.83286 c 0.38821 0.3882 0.38821 1.01873 0 1.40693 c -0.19452 0.1937 -0.44899 0.29178 -0.70348 0.29178 z" stroke-linecap="round" />
</g>
<g transform="matrix(1 0 0 1 400.79 148.07)"  >
<path style="stroke: rgb(226,164,20); stroke-width: 0; stroke-dasharray: none; stroke-linecap: butt; stroke-dashoffset: 0; stroke-linejoin: miter; stroke-miterlimit: 10; fill: rgb(59,117,23); fill-rule: nonzero; opacity: 1;"  transform=" translate(-400.79, -149.08)" d="M 406.26379 149.07603 c 0 3.02215 -2.44997 5.47213 -5.47213 5.47213 c -3.02215 0 -5.47213 -2.44998 -5.47213 -5.47213 c 0 -3.02215 2.44997 -5.47214 5.47213 -5.47214 c 3.02215 0 5.47213 2.44998 5.47213 5.47214 z" stroke-linecap="round" />
</g>
<g transform="matrix(1 0 0 1 406.76 154.04)"  >
<path style="stroke: rgb(226,164,20); stroke-width: 0; stroke-dasharray: none; stroke-linecap: butt; stroke-dashoffset: 0; stroke-linejoin: miter; stroke-miterlimit: 10; fill: rgb(59,117,23); fill-rule: nonzero; opacity: 1;"  transform=" translate(-406.76, -155.05)" d="M 405.50528 160.3732 c -2.94128 -0.69453 -4.76264 -3.64196 -4.0681 -6.58324 c 0.69453 -2.94128 3.64195 -4.76264 6.58323 -4.06811 c 2.94128 0.69453 4.76264 3.64195 4.0681 6.58324 c -0.69453 2.94128 -3.64195 4.76265 -6.58323 4.06811 z" stroke-linecap="round" />
</g>
<g transform="matrix(1 0 0 1 412.73 160.01)"  >
<path style="stroke: rgb(226,164,20); stroke-width: 0; stroke-dasharray: none; stroke-linecap: butt; stroke-dashoffset: 0; stroke-linejoin: miter; stroke-miterlimit: 10; fill: rgb(59,117,23); fill-rule: nonzero; opacity: 1;"  transform=" translate(-412.73, -161.02)" d="M 418.20409 161.01567 c 0 3.02215 -2.45078 5.47294 -5.47294 5.47294 c -3.02215 0 -5.47213 -2.45078 -5.47213 -5.47294 c 0 -3.02215 2.44998 -5.47214 5.47213 -5.47214 c 3.02215 0 5.47294 2.45078 5.47294 5.47214 z" stroke-linecap="round" />
</g>
<g transform="matrix(1 0 0 1 417.82 165.11)"  >
<path style="stroke: rgb(59,117,23); stroke-width: 1; stroke-dasharray: none; stroke-linecap: butt; stroke-dashoffset: 0; stroke-linejoin: miter; stroke-miterlimit: 10; fill: rgb(59,117,23); fill-rule: nonzero; opacity: 1;"  transform=" translate(-417.82, -166.11)" d="M 420.87036 170.15011 c -0.25448 0 -0.50895 -0.09725 -0.70347 -0.29095 l -6.09454 -6.09455 c -0.38901 -0.3882 -0.38901 -1.01873 0 -1.40693 c 0.38901 -0.3882 1.01792 -0.3882 1.40693 0 l 6.09454 6.09455 c 0.38821 0.3882 0.38821 1.01873 0 1.40693 c -0.19452 0.19289 -0.44899 0.29095 -0.70347 0.29095 z" stroke-linecap="round" />
</g>
<g transform="matrix(1 0 0 1 419.77 128.29)"  >
<path style="stroke: none; stroke-width: 0.5; stroke-dasharray: none; stroke-linecap: butt; stroke-dashoffset: 0; stroke-linejoin: miter; stroke-miterlimit: 10; fill: rgb(84,166,33); fill-rule: nonzero; opacity: 1;"  transform=" translate(-419.76, -129.29)" d="M 411.42587 137.62769 v -16.67704 l 16.67703 16.67703 z" stroke-linecap="round" />
</g>
<g transform="matrix(1 0 0 1 408.43 231.03)"  >
<path style="stroke: rgb(0,0,0); stroke-opacity: 0.15; stroke-width: 10; stroke-dasharray: none; stroke-linecap: butt; stroke-dashoffset: 0; stroke-linejoin: miter; stroke-miterlimit: 10; fill: none; fill-rule: nonzero; opacity: 1;"  transform=" translate(-408.43, -232.04)" d="M 432.60481 219.95159 v 36.2566 c 0 3.32353 -2.71924 6.04278 -6.04278 6.04278 h -36.28681 c -3.32353 0 -6.01256 -2.71924 -6.01256 -6.04278 l 0.03021 -48.34213 c 0 -3.32351 2.68903 -6.04278 6.01256 -6.04278 h 24.17106 z" stroke-linecap="round" />
</g>
<g transform="matrix(1 0 0 1 408.43 231.03)"  >
<path style="stroke: none; stroke-width: 1; stroke-dasharray: none; stroke-linecap: butt; stroke-dashoffset: 0; stroke-linejoin: miter; stroke-miterlimit: 10; fill: rgb(255,255,255); fill-rule: nonzero; opacity: 1;"  transform=" translate(-408.43, -232.04)" d="M 432.60481 219.95159 v 36.2566 c 0 3.32353 -2.71924 6.04278 -6.04278 6.04278 h -36.28681 c -3.32353 0 -6.01256 -2.71924 -6.01256 -6.04278 l 0.03021 -48.34213 c 0 -3.32351 2.68903 -6.04278 6.01256 -6.04278 h 24.17106 z" stroke-linecap="round" />
</g>
<g transform="matrix(1 0 0 1 408.43 241.18)"  >
<path style="stroke: rgb(0,0,0); stroke-opacity: 0.1; stroke-width: 0; stroke-dasharray: none; stroke-linecap: butt; stroke-dashoffset: 0; stroke-linejoin: miter; stroke-miterlimit: 10; fill: rgb(59,117,23); fill-rule: evenodd; opacity: 1;"  transform=" translate(-408.43, -242.19)" d="M 414.61104 243.57922 c -0.00829 -0.25855 -0.07209 -0.68367 -0.21215 -1.41043 c -0.07956 -0.41019 -0.50716 -2.50431 -0.624 -3.09102 c -0.32733 -1.64082 -0.6298 -3.24847 -0.94637 -5.06579 c -0.60661 -3.49956 -0.57428 -5.01358 0.28508 -5.40888 c 0.41435 -0.1906 0.87842 -0.06627 1.52479 0.29004 c 0.34307 0.18812 1.8082 1.13116 1.7154 1.07398 c 1.65241 1.02924 2.8706 1.4701 4.08546 1.28283 c 1.26458 -0.1964 2.07504 -0.04972 2.38332 0.51214 c 0.28838 0.52622 0.01242 1.17342 -0.60494 1.80654 c -1.21983 1.25629 -3.29406 2.08333 -4.8462 1.67645 c -0.68119 -0.18231 -1.02591 -0.38535 -1.97228 -1.04997 l -0.07873 -0.05469 c 0.03894 0.49142 0.21879 1.44192 0.59418 3.1515 c 0.24363 1.10713 1.72368 7.61319 2.18527 9.67416 l 0.00166 0.00995 c 0.43755 2.18526 -1.55213 3.91474 -4.33902 3.91474 c -2.72639 0 -5.27297 -1.64745 -5.68649 -3.75231 c -0.43921 -2.18775 1.55213 -3.92303 4.33655 -3.92303 c 0.55689 0 1.11624 0.07045 1.66899 0.20718 c 0.18811 0.04725 0.36131 0.09778 0.52704 0.15496 z M 400.52659 248.54311 c -0.00829 -0.26353 -0.07459 -0.69443 -0.22043 -1.43944 c -0.07457 -0.38118 -0.49307 -2.43386 -0.62401 -3.08853 c -0.32318 -1.62425 -0.62152 -3.2236 -0.93643 -5.03015 c -0.60661 -3.49956 -0.57346 -5.0136 0.28508 -5.40805 c 0.41601 -0.1906 0.87841 -0.06796 1.5248 0.29004 c 0.34391 0.18812 1.8082 1.13034 1.71539 1.07316 c 1.65159 1.02924 2.86893 1.4701 4.08214 1.28283 c 1.26376 -0.19888 2.07504 -0.05304 2.38331 0.50882 c 0.28838 0.52622 0.01243 1.17258 -0.60328 1.80653 c -1.2215 1.25713 -3.29572 2.08251 -4.84537 1.67147 c -0.67953 -0.18231 -1.02425 -0.38452 -1.97064 -1.04995 l -0.07873 -0.05387 c 0.03894 0.49142 0.21878 1.44192 0.59417 3.15069 c 0.24363 1.10796 1.72203 7.61568 2.18443 9.67497 l 0.00249 0.01078 c 0.42843 2.18608 -1.56126 3.92137 -4.33738 3.92137 c -2.72391 0 -5.27049 -1.6516 -5.69311 -3.76227 c -0.43091 -2.18775 1.56126 -3.91971 4.34235 -3.91971 c 0.74996 0 1.49412 0.1243 2.19603 0.36131 z" stroke-linecap="round" />
</g>
<g transform="matrix(1 0 0 1 419.77 213.67)"  >
<path style="stroke: none; stroke-width: 0.5; stroke-dasharray: none; stroke-linecap: butt; stroke-dashoffset: 0; stroke-linejoin: miter; stroke-miterlimit: 10; fill: rgb(84,166,33); fill-rule: nonzero; opacity: 1;"  transform=" translate(-419.76, -214.66)" d="M 411.43803 222.99006 v -16.65179 l 16.65179 16.65178 z" stroke-linecap="round" />
</g>
<g transform="matrix(1 0 0 1 348.41 149.17)"  >
<path style="stroke: rgb(0,0,0); stroke-opacity: 0.15; stroke-width: 10; stroke-dasharray: none; stroke-linecap: butt; stroke-dashoffset: 0; stroke-linejoin: miter; stroke-miterlimit: 10; fill: none; fill-rule: nonzero; opacity: 1;"  transform=" translate(-348.41, -150.17)" d="M 365.01485 86.23112 l -1.6672 7.0264 h -10.18826 l -0.00162 53.40296 h 10.18826 v 7.02639 h -10.18826 v 53.40296 h 10.18826 l 1.74096 7.0264 h -15.44263 c -1.75658 0 -3.51316 -1.40556 -3.51316 -3.51316 v -56.9143 h -14.40517 v -7.0264 h 14.40517 v -56.91429 c 0 -2.10755 1.75658 -3.51316 3.51316 -3.51316 z" stroke-linecap="round" />
</g>
<g transform="matrix(1 0 0 1 348.41 149.17)"  >
<path style="stroke: none; stroke-width: 1; stroke-dasharray: none; stroke-linecap: butt; stroke-dashoffset: 0; stroke-linejoin: miter; stroke-miterlimit: 10; fill: rgb(255,255,255); fill-rule: nonzero; opacity: 1;"  transform=" translate(-348.41, -150.17)" d="M 365.01485 86.23112 l -1.6672 7.0264 h -10.18826 l -0.00162 53.40296 h 10.18826 v 7.02639 h -10.18826 v 53.40296 h 10.18826 l 1.74096 7.0264 h -15.44263 c -1.75658 0 -3.51316 -1.40556 -3.51316 -3.51316 v -56.9143 h -14.40517 v -7.0264 h 14.40517 v -56.91429 c 0 -2.10755 1.75658 -3.51316 3.51316 -3.51316 z" stroke-linecap="round" />
</g>
<g transform="matrix(1 0 0 1 239.21 67)"  >
<path style="stroke: rgb(0,0,0); stroke-opacity: 0.15; stroke-width: 10; stroke-dasharray: none; stroke-linecap: butt; stroke-dashoffset: 0; stroke-linejoin: miter; stroke-miterlimit: 10; fill: none; fill-rule: nonzero; opacity: 1;"  transform=" translate(-239.2, -68)" d="M 311.15112 67.99796 c 0 16.06889 -32.79971 30.24889 -71.94672 30.24889 c -39.14953 0 -71.94674 -13.70543 -71.94674 -30.24889 c 0 -16.06889 32.79972 -30.2489 71.94674 -30.2489 c 39.14953 0.47434 71.94674 14.18002 71.94674 30.2489 z" stroke-linecap="round" />
</g>
<g transform="matrix(1 0 0 1 239.21 117.43)"  >
<path style="stroke: rgb(0,0,0); stroke-opacity: 0.15; stroke-width: 10; stroke-dasharray: none; stroke-linecap: butt; stroke-dashoffset: 0; stroke-linejoin: miter; stroke-miterlimit: 10; fill: none; fill-rule: nonzero; opacity: 1;"  transform=" translate(-239.2, -118.44)" d="M 311.15112 122.8248 c 0 16.54067 -32.79971 30.2489 -71.94672 30.2489 c -39.14953 -0.47434 -71.94674 -14.18001 -71.94674 -30.2489 v -39.02037 c 14.28458 11.81491 40.7376 23.89619 71.94674 23.89619 c 31.21412 0 58.19337 -12.08126 71.94674 -23.89619 z" stroke-linecap="round" />
</g>
<g transform="matrix(1 0 0 1 239.21 173.91)"  >
<path style="stroke: rgb(0,0,0); stroke-opacity: 0.15; stroke-width: 10; stroke-dasharray: none; stroke-linecap: butt; stroke-dashoffset: 0; stroke-linejoin: miter; stroke-miterlimit: 10; fill: none; fill-rule: nonzero; opacity: 1;"  transform=" translate(-239.2, -174.91)" d="M 311.15112 181.42695 c 0 16.06888 -32.79971 30.24889 -71.94672 30.24889 c -39.14953 0 -71.94674 -13.70766 -71.94674 -30.24889 v -43.27431 c 14.28458 11.81492 40.7351 23.89619 71.94674 23.89619 c 31.21163 0 58.19337 -12.07904 71.94674 -23.89619 z" stroke-linecap="round" />
</g>
<g transform="matrix(1 0 0 1 239.21 228.75)"  >
<path style="stroke: rgb(0,0,0); stroke-opacity: 0.15; stroke-width: 10; stroke-dasharray: none; stroke-linecap: butt; stroke-dashoffset: 0; stroke-linejoin: miter; stroke-miterlimit: 10; fill: none; fill-rule: nonzero; opacity: 1;"  transform=" translate(-239.2, -229.74)" d="M 311.15112 232.00207 c 0 16.54067 -32.79971 30.2489 -71.94672 30.2489 c -39.14953 -0.00218 -71.94674 -13.70766 -71.94674 -30.2489 v -34.76639 c 14.28458 11.81492 40.7376 23.89617 71.94674 23.89617 c 31.21412 0 58.19337 -12.08126 71.94674 -23.89617 z" stroke-linecap="round" />
</g>
<g transform="matrix(1 0 0 1 239.21 67)"  >
<path style="stroke: rgb(0,0,0); stroke-opacity: 0.15; stroke-width: 0; stroke-dasharray: none; stroke-linecap: butt; stroke-dashoffset: 0; stroke-linejoin: miter; stroke-miterlimit: 10; fill: rgb(255,255,255); fill-rule: nonzero; opacity: 1;"  transform=" translate(-239.2, -68)" d="M 311.15112 67.99796 c 0 16.06889 -32.79971 30.24889 -71.94672 30.24889 c -39.14953 0 -71.94674 -13.70543 -71.94674 -30.24889 c 0 -16.06889 32.79972 -30.2489 71.94674 -30.2489 c 39.14953 0.47434 71.94674 14.18002 71.94674 30.2489 z" stroke-linecap="round" />
</g>
<g transform="matrix(1 0 0 1 239.21 119.46)"  >
<path style="stroke: rgb(0,0,0); stroke-opacity: 0.15; stroke-width: 0; stroke-dasharray: none; stroke-linecap: butt; stroke-dashoffset: 0; stroke-linejoin: miter; stroke-miterlimit: 10; fill: rgb(255,255,255); fill-rule: nonzero; opacity: 1;"  transform=" translate(-239.2, -120.46)" d="M 311.15112 87.85014 v 34.97466 c 0 16.54067 -32.79971 30.2489 -71.94672 30.2489 c -39.14953 -0.47434 -71.94674 -14.18001 -71.94674 -30.2489 v -34.97466 c 14.28458 11.81491 40.7376 19.85048 71.94674 19.85048 c 31.21412 0 58.19337 -8.03554 71.94674 -19.85048 z" stroke-linecap="round" />
</g>
<g transform="matrix(1 0 0 1 239.21 175.94)"  >
<path style="stroke: rgb(0,0,0); stroke-opacity: 0.15; stroke-width: 0; stroke-dasharray: none; stroke-linecap: butt; stroke-dashoffset: 0; stroke-linejoin: miter; stroke-miterlimit: 10; fill: rgb(255,255,255); fill-rule: nonzero; opacity: 1;"  transform=" translate(-239.2, -176.94)" d="M 311.15112 142.19833 v 39.2286 c 0 16.06888 -32.79971 30.24889 -71.94672 30.24889 c -39.14953 0 -71.94674 -13.70766 -71.94674 -30.24889 v -39.2286 c 14.28458 11.81492 40.7351 19.85047 71.94674 19.85047 c 31.21163 0 58.19337 -8.03332 71.94674 -19.85047 z" stroke-linecap="round" />
</g>
<g transform="matrix(1 0 0 1 239.21 230.76)"  >
<path style="stroke: rgb(0,0,0); stroke-opacity: 0.15; stroke-width: 0; stroke-dasharray: none; stroke-linecap: butt; stroke-dashoffset: 0; stroke-linejoin: miter; stroke-miterlimit: 10; fill: rgb(255,255,255); fill-rule: nonzero; opacity: 1;"  transform=" translate(-239.2, -231.77)" d="M 311.15112 201.2814 v 30.72068 c 0 16.54067 -32.79971 30.2489 -71.94672 30.2489 c -39.14953 -0.00218 -71.94674 -13.70766 -71.94674 -30.2489 v -30.72067 c 14.28458 11.81492 40.7376 19.85045 71.94674 19.85045 c 31.21412 0 58.19337 -8.03554 71.94674 -19.85045 z" stroke-linecap="round" />
</g>
<g transform="matrix(1 0 0 1 291.08 117.81)"  >
<path style="stroke: rgb(59,117,23); stroke-width: 2.5; stroke-dasharray: none; stroke-linecap: butt; stroke-dashoffset: 0; stroke-linejoin: miter; stroke-miterlimit: 10; fill: rgb(59,117,23); fill-rule: nonzero; opacity: 1;"  transform=" translate(-291.08, -118.81)" d="M 282.33724 118.80976 c 0 -4.82793 3.91381 -8.74175 8.74175 -8.74175 c 4.82794 0 8.74176 3.91382 8.74176 8.74175 c 0 4.82793 -3.91382 8.74173 -8.74176 8.74173 c -4.82794 0 -8.74175 -3.91381 -8.74175 -8.74173 z" stroke-linecap="round" />
</g>
<g transform="matrix(0.99 0.17 -0.17 0.99 302.7 145.27)" style=""  >
		<text xml:space="preserve" font-family="'Lucida Console', Monaco, monospace" font-size="85" font-style="normal" font-weight="normal" style="stroke: none; stroke-width: 1; stroke-dasharray: none; stroke-linecap: butt; stroke-dashoffset: 0; stroke-linejoin: miter; stroke-miterlimit: 4; fill: rgb(0,0,0); fill-rule: nonzero; opacity: 1; white-space: pre;" ><tspan x="-204.86" y="26.7" >UNLOCKED</tspan></text>
</g>
</svg>